# xmcd
#
# Track frame offsets: 
#        150
#        7762
#        16833
#        33773
#        43799
#        56350
#        66604
#        77659
#        89205
#        100198
#        110593
#        122660
#        133854
#        150063
#        158757
#
# Disc length: 2223 seconds
#
# Revision: 2
# Processed by: cddbd v1.5.2PL0 Copyright (c) Steve Scherf et al.
# Submitted via: ExactAudioCopy v0.95b4
#
DISCID=b308ad0f
DTITLE=Various Artist - The Singing Cowboy Collection
DYEAR=2005
DGENRE=Western
TTITLE0=Gene Autry - Sioux City Sue 
TTITLE1=Sons Of The Pioneers - Cool Water 
TTITLE2=Edddie Deean/ (I Dreamed Of A) Hill-Billy Heaven)
TTITLE3=Foy Willing and Riders of The Purple Sage - No One To Cry To
TTITLE4=Tex Ritter - High Noon (Do Not Forsake Me)
TTITLE5=Sons Of The Pioneers - Cowboy's Night Herd Song
TTITLE6=Dale Evans - If You Ever Come To Texas
TTITLE7=Smiley Burnette - It's My Lazy Day
TTITLE8=Jimmy Wakely - Saddle Pals
TTITLE9=Johnny Bond - Cimarron, Roll On 
TTITLE10=Monte Hale - In My Stable There's An Empty Stall
TTITLE11=Ray Whitley - Let Me Ride Down In Rocky Canyon
TTITLE12=Rex Allen - Streets Of Laredo
TTITLE13=Spade Cooley and Tex Williams - Shame On You 
TTITLE14=The Cass County Boys - Which Way'd They Go 
EXTD=
EXTT0=
EXTT1=
EXTT2=
EXTT3=
EXTT4=
EXTT5=
EXTT6=
EXTT7=
EXTT8=
EXTT9=
EXTT10=
EXTT11=
EXTT12=
EXTT13=
EXTT14=
PLAYORDER=
